<svg version="1.2" xmlns="http://www.w3.org/2000/svg" viewBox="0 0 140 400" width="140" height="400"><style>.a{fill:#fff}.b{fill:none}.c{fill:#94d13d;stroke:#fff;stroke-linejoin:round}.d{fill:#6f58e9;stroke:#fff;stroke-linejoin:round}.e{fill:#2d99fe;stroke:#fff;stroke-linejoin:round}.f{fill:#2ddac1;stroke:#fff;stroke-linejoin:round}</style><path class="a" d="m0 0h140v400h-140z"/><path class="b" d="m10 10h120v375h-120z"/><path class="b" d="m10 10h120v375h-120z"/><path class="c" d="m70 155.5c9.3 0 18.4 3.1 25.8 8.8 7.4 5.8 12.6 13.8 14.9 22.9 2.3 9 1.5 18.6-2.2 27.1-3.8 8.6-10.3 15.7-18.5 20.1l-4-7.4c6.6-3.5 11.8-9.2 14.8-16 3-6.9 3.6-14.5 1.8-21.8-1.9-7.2-6.1-13.6-12-18.2-5.9-4.6-13.1-7.1-20.6-7.1z"/><path class="d" d="m90 234.4c-6.2 3.4-13 5.1-20 5.1-7 0-13.8-1.7-20-5.1-6.1-3.3-11.3-8.1-15.1-13.9-3.9-5.8-6.2-12.5-6.8-19.5l8.4-0.7c0.5 5.6 2.3 10.9 5.4 15.6 3 4.7 7.2 8.5 12.1 11.2 4.9 2.6 10.4 4 16 4 5.6 0 11.1-1.4 16-4z"/><path class="e" d="m28.1 201c-0.2-3.5-0.1-7 0.5-10.4 0.5-3.4 1.5-6.8 2.9-10 1.4-3.1 3.2-6.1 5.3-8.9 2.2-2.7 4.6-5.2 7.4-7.3l5.1 6.6c-2.2 1.7-4.1 3.7-5.8 5.9-1.7 2.2-3.2 4.6-4.3 7.1-1.1 2.6-1.9 5.2-2.3 8-0.5 2.7-0.6 5.5-0.4 8.3z"/><path class="f" d="m44.2 164.4q2.7-2.2 5.8-3.8 3.1-1.7 6.3-2.8 3.3-1.1 6.7-1.7 3.5-0.6 6.9-0.6l0.1 8.4q-2.8 0-5.6 0.5-2.7 0.4-5.3 1.3-2.7 0.9-5.1 2.3-2.4 1.3-4.6 3z"/></svg>